<svg xmlns="http://www.w3.org/2000/svg" viewBox="0 0 400.22 130.98">
  <defs>
    <style>
      .cls-1 {
        fill: none;
      }
    </style>
  </defs>
  <g id="レイヤー_2" data-name="レイヤー 2">
    <g id="レイヤー_1-2" data-name="レイヤー 1">
      <path d="M68.91,36.06H53.7A1.82,1.82,0,0,0,52,37.62L44.9,91.9a1.24,1.24,0,0,0,.25,1,1.36,1.36,0,0,0,1,.44H53.7a1.64,1.64,0,0,0,1.82-1.56l1.24-9.72a.41.41,0,0,1,.36-.36h8.37a.36.36,0,0,1,.36.36l1.31,9.72a1.55,1.55,0,0,0,1.75,1.56h7.64a1.37,1.37,0,0,0,1-.44,1.42,1.42,0,0,0,.25-1L70.66,37.62A1.81,1.81,0,0,0,68.91,36.06ZM64.29,70.77a.33.33,0,0,1-.29.14H58.69c-.15,0-.26,0-.29-.14a.32.32,0,0,1-.11-.3L60.94,50.1c.08-.36.73-.36.73,0l2.69,20.37A.48.48,0,0,1,64.29,70.77Zm56.29-34.71h-7.65a1.52,1.52,0,0,0-1.45,1.52V64.69a.44.44,0,0,1-.33.4.43.43,0,0,1-.47-.22L100,37.58a2,2,0,0,0-2.18-1.52H90.16l-.29,0a1.54,1.54,0,0,0-1.17,1.49V91.8a1.51,1.51,0,0,0,1.46,1.56H97.8a1.56,1.56,0,0,0,1.49-1.53V64.69a.36.36,0,0,1,.29-.36h.07a.33.33,0,0,1,.37.25l10.7,27.22A2.2,2.2,0,0,0,113,93.36h7.82A1.59,1.59,0,0,0,122,91.8V37.58a1.55,1.55,0,0,0-1.49-1.52Zm76.66,0H182.06a1.9,1.9,0,0,0-1.78,1.56L173.19,91.9a1.14,1.14,0,0,0,.29,1,1.29,1.29,0,0,0,1,.44h7.6a1.55,1.55,0,0,0,1.71-1.56l1.28-9.72a.46.46,0,0,1,.36-.36h8.37a.52.52,0,0,1,.44.36l1.23,9.72a1.57,1.57,0,0,0,1.75,1.56h7.64a1.37,1.37,0,0,0,.95-.44,1.3,1.3,0,0,0,.29-1L199,37.62a2.08,2.08,0,0,0-1.85-1.56Zm-4.63,34.71a.43.43,0,0,1-.36.14h-5.31a.4.4,0,0,1-.29-.14.38.38,0,0,1-.11-.3l2.69-20.37c0-.36.73-.36.8,0l2.66,20.37a.53.53,0,0,1-.11.3Zm56.25-34.71h-7.6a1.52,1.52,0,0,0-1.49,1.52V64.69a.45.45,0,0,1-.29.4.32.32,0,0,1-.44-.22l-10.7-27.29a2.17,2.17,0,0,0-2.25-1.52h-7.61l-.25,0A1.54,1.54,0,0,0,217,37.58V91.8a1.56,1.56,0,0,0,1.49,1.56h7.64a1.53,1.53,0,0,0,1.46-1.53V64.69a.4.4,0,0,1,.36-.36.41.41,0,0,1,.44.25L239,91.8a2.16,2.16,0,0,0,2.22,1.56h7.89a1.57,1.57,0,0,0,1.21-1.56V37.58a1.38,1.38,0,0,0-1.23-1.52,1.2,1.2,0,0,0-.19,0Zm24.74,0H266a1.49,1.49,0,0,0-1.5,1.49V91.8A1.51,1.51,0,0,0,266,93.36h7.64a1.53,1.53,0,0,0,1.46-1.53V37.62a1.54,1.54,0,0,0-1.46-1.56Zm-111.33,0h-7.64a1.46,1.46,0,0,0-1.46,1.45V76.33a6.18,6.18,0,0,1-6.11,6.19A6.11,6.11,0,0,1,141,76.33V72.4a1.57,1.57,0,0,0-1.57-1.52h-7.53a1.52,1.52,0,0,0-1.56,1.49V76.3a16.72,16.72,0,1,0,33.43,0V37.58A1.52,1.52,0,0,0,162.27,36.06ZM37.58,37.15a.74.74,0,0,0,.08-.77c-.08-.21-.37-.32-.73-.32H29.4A2.52,2.52,0,0,0,27,37.55L16.45,56.9a.36.36,0,0,1-.44.22.4.4,0,0,1-.26-.4V37.58a1.52,1.52,0,0,0-1.52-1.52H6.62a1.49,1.49,0,0,0-1.53,1.45V91.8a1.52,1.52,0,0,0,1.53,1.56h7.57a1.56,1.56,0,0,0,1.53-1.53V70.73a.4.4,0,0,1,.29-.44h.07a.42.42,0,0,1,.37.22L27,91.87a2.49,2.49,0,0,0,2.4,1.49H37c.33,0,.62-.11.69-.29a1,1,0,0,0-.07-.84L23.5,63.93a.48.48,0,0,1,0-.37L37.62,37.18ZM389.7,44.61a24.81,24.81,0,0,0-19.79-8.55c-9.82,0-17.61,4.69-23.21,13.93l-.36.55L346,50C340,40.75,332,36.06,322.25,36.06a24,24,0,0,0-18.7,8.73,29.59,29.59,0,0,0-7.35,20c0,7.93,2.29,14.66,6.8,19.94a24.67,24.67,0,0,0,19.72,8.62c9.79,0,17.61-4.73,23.29-13.93l.29-.55.36.51c6,9.28,13.94,14,23.69,14a24,24,0,0,0,18.77-8.73,29.43,29.43,0,0,0,7.42-20c0-8-2.29-14.77-6.84-20Zm-48.93,21.1a40.3,40.3,0,0,1-7,11.17A14.27,14.27,0,0,1,323.45,81a13.91,13.91,0,0,1-11.28-5.17,18,18,0,0,1,.36-22.19,13.09,13.09,0,0,1,10.41-5.24,14.72,14.72,0,0,1,10.77,4.48c2.44,2.43,4.84,6.36,7.09,11.64l.22.62-.22.54Zm39.51,10.08A12.81,12.81,0,0,1,369.91,81c-7.42,0-13.5-5.42-18-16.12l-.3-.54.3-.59c2.4-5.24,4.73-8.91,7.16-11.24a14.67,14.67,0,0,1,10.41-4.11,13.54,13.54,0,0,1,11.1,5.09,17.39,17.39,0,0,1,3.56,11.1,17,17,0,0,1-3.78,11.21Z"/>
      <rect class="cls-1" width="400.22" height="130.98"/>
    </g>
  </g>
</svg>
