<svg xmlns="http://www.w3.org/2000/svg"><g fill="none" fill-rule="evenodd">
<path d="M32.99 22.74c-.11-.09-.24-.17-.37-.25l-.2-.07c-.71-.48-.55-1.47-.33-3.47.32-3 .87-7.37 1.2-8.3.39-1.06.8-1.58.8-1.59 3.46-3.25.2-7.08-5.07-5.81-2.16.52-3.15 2.96-4.47 4-1.64 1.28-2.72.16-4.12-1.74-.3-.41-.64-.6-1.03-.6-1.06 0-3.07 2.23-5.4 4.2-2.43 2.06-5.6 3.86-7.06 3.86-.56 0-1.03-.11-1.4-.43-.9-.81.87-2.02 1.26-2.5.38-.47-1.5-1.5-1.82-1.62-1.89-.73-4.1 1.37-4.8 6.53-.54 4.09.23 8.01.82 7.74.65-.31.32-.8.76-2.8.64-2.87 1.04-3.18 1.38-3.08.34.1 1.47 4.73 2.17 7.54 1.66 6.67 6 9.69 12.9 8.33 3.46-.68 3.6-1.87 7.3-2.34 2.45-.32 3.58.06 5.64-.34 2.18-.42 3.16-1.38 3.4-2.83a4.69 4.69 0 0 0-1.56-4.43z" fill="#000"/><path d="M27.91 11.87s1.37-.38 2.45-.91c1.7-.84 3.99-2.54 3.77-3.77-.25-1.34-2.15-2.1-4.16-2.6-1.82-.47-3.27 1.6-5.5 3.54S20.8 7.84 20 6.91c-.79-.94-2.37.93-4.81 2.94-2.44 2.02-7.72 4.64-10.6 3.77-.83-.25-.58-1.7.62-2.96.62-.66-.86-.9-1.4-.35-1.58 1.62-2.8 4.7-3.07 7.58-.19 1.85.34 2.83.42 1.55.17-2.85 1.64-4.52 2.11-4.05.21.22.42.64.6 1.28.96 3.09 1.84 6.27 3.16 9.13 1.9 4.15 4.6 5.67 8.86 5.67 3.76 0 6-1.32 9.39-2.18 3.64-.92 5.84.13 7.11-1.01.98-.88.47-3.14-1.95-4.25-2.97-1.36-5.88.6-8.57 1.63-3.02 1.16-7.17 2.27-9.88 1.08a7.46 7.46 0 0 1-3.46-2.9 31.7 31.7 0 0 1-3.58-7.68c-.36-.81-.53-1.38-.24-1.56.57-.36 2 1.04 7.82 1 2.5 0 5.34-.5 7.3-2.14 3.53 1.03 6.15-.27 8.7-3.92.41-.58.7-.28.44.43-.37 1.04-1.07 1.9-1.07 1.9z" fill="#E10012"/><path d="M28.76 12.38l-.16.08c-.31.13-.38.57-.35 1.59.12 4.18.3 6.58.3 6.58.55-1.41 1.15-5.76 1.12-7.13-.02-1.74-.9-1.11-.91-1.12zm3.1-.9c-.3.65-.57 1.48-.77 2.5A251.3 251.3 0 0 0 29.66 22c.97 0 1.18-1.21 1.56-4.11.36-2.83.7-5.78.63-6.42zm-6.73 2.47c-.82.53-.16 3.04.2 4.95.2 1.1.4 2.02.59 2.74.14-.98.26-2.25.35-3.83.12-2.08.21-3.51.29-4.43-.36.15-.71.3-1.07.43l-.36.14zm-1.18 2.76c-.3.72-.43 2.52-.46 3.15l1.01-.44c-.14-.93-.22-1.58-.55-2.7zm-1.6-1.5a23.25 23.25 0 0 0-1.41 5.48c-.23 1.53-.55 3.38-.8 4.73.67-.21 1.21-.45 1.71-.7.72-1 1.31-7.18.57-9.26a1.3 1.3 0 0 1-.06-.25zm-6.47 1.24c-.44.06-.9.1-1.37.12-.1.07-.14.24-.1.69.04 1.03.17 2.67.4 4.68.07.72.17 1.39.27 2l.14-.72c.28-1.5.68-4.06.97-5.92.06-.38-.03-.75-.3-.85zm-2.37 2.7c-.27 1.75-1.4 6.12-.8 6.7a7.3 7.3 0 0 0 1.64.33 207.9 207.9 0 0 0-.53-4.47c-.13-1-.25-1.86-.31-2.56zm-1.65-2.58h-.02a31.32 31.32 0 0 1-.65-.05h-.14c-.65.09-1.21.56-.92 3.58.13 1.37.49 2.93.84 4.25.53-1.6.92-4.03 1.12-5.53.21-1.61-.03-2.1-.23-2.25zm-2.8.09c-.35.25-.76.77-1.08 1.12a6.35 6.35 0 0 0 1.28 2.17c-.1-1.09-.16-2.7-.2-3.3zm-1.8-.8c-.37-.1-.69-.21-.94-.3-.59-.22-.7.03-.45.68l.52 1.3h.01l.01.01c.37.33 1.5-1.14.86-1.69zm2.4 7.32l-.19-1.46a21.1 21.1 0 0 1-1.98-3.33c-.17.25-.32.45-.44.6l.05.11v.01a27.56 27.56 0 0 0 2.07 3.82l.02.03c.14.21.3.41.46.6v-.01l.07.09-.07-.46zm9.88-7.4h-.03c-.57.16-.84.17-1.7 1.75-1.35 2.45-2.66 8.6-1.44 8.6a.1.1 0 0 1 0 .03l.3-.03h.02c.4-.05.78-.1 1.13-.16.58-.11.57-.64.42-1.84-.12-1.02-.76-1.8-1.57-1.46.04-.83.4-2.1.65-2.48.28-.43.52-.23.6-.17.33.3.5 1.04.75 2.06.15.65.32 1.37.57 2.06.32-.97.58-2.64.73-6.07.01-.32.05-.61.04-.89-.03-.67.05-1.35-.47-1.4zm5.08 4.75l-1.2.4c-.06.96.01 2.06.12 2.87l.63-.32v.03a6.71 6.71 0 0 1 .33-.17c0-.02.5-.02.16-2.41l-.04-.4zm2.52 1.88c.26-.07.53-.13.8-.18-.22-1.65-.47-4.55-.47-4.55-.3 1.23-.43 3.35-.33 4.73z" fill="#FFF" fill-rule="nonzero"/></g></svg>