<svg width="44" height="44" xmlns="http://www.w3.org/2000/svg"><g fill="none" fill-rule="evenodd"><path d="M0 0h44v44H0z"/><path d="M18.548 32.6c9.056 0 14.01-7.387 14.01-13.794 0-.21 0-.418-.015-.626A9.934 9.934 0 0 0 35 15.67a9.95 9.95 0 0 1-2.828.763 4.879 4.879 0 0 0 2.165-2.681 9.962 9.962 0 0 1-3.127 1.176 4.985 4.985 0 0 0-5.916-.954c-1.964 1.035-2.98 3.24-2.475 5.376-3.96-.196-7.648-2.037-10.149-5.065-1.307 2.215-.639 5.049 1.525 6.471a4.946 4.946 0 0 1-2.235-.607v.062c0 2.308 1.653 4.295 3.95 4.752a4.991 4.991 0 0 1-2.223.083c.645 1.975 2.494 3.328 4.6 3.367A9.98 9.98 0 0 1 11 30.423a14.1 14.1 0 0 0 7.548 2.173" fill="#FFF"/></g></svg>