<svg width="44" height="44" xmlns="http://www.w3.org/2000/svg"><g fill="none" fill-rule="evenodd"><path d="M0 0h44v44H0z"/><path d="M33.831 20.779c0 2.098-.827 3.989-2.554 5.851-2.5 2.83-8.09 6.277-9.361 6.804-1.272.527-1.084-.335-1.033-.631l.17-1.004c.04-.299.082-.763-.038-1.06-.134-.326-.662-.495-1.05-.577C14.24 29.417 10 25.48 10 20.779c0-5.244 5.346-9.51 11.916-9.51s11.915 4.266 11.915 9.51zm-14.336-2.534h-.836a.23.23 0 0 0-.232.228v5.106a.23.23 0 0 0 .232.227h.836a.23.23 0 0 0 .232-.227v-5.106a.23.23 0 0 0-.232-.228zm5.752 0h-.835a.23.23 0 0 0-.233.228v3.033l-2.379-3.16a.25.25 0 0 0-.018-.023l-.001-.002a.23.23 0 0 0-.014-.014l-.004-.004-.013-.01a.05.05 0 0 0-.006-.004l-.012-.008-.007-.004-.012-.007-.008-.004-.013-.006-.007-.002a.14.14 0 0 0-.014-.005c-.003 0-.005 0-.008-.002l-.014-.002-.01-.002a.096.096 0 0 0-.012-.001l-.012-.001h-.843a.23.23 0 0 0-.233.228v5.106a.23.23 0 0 0 .233.227h.835a.23.23 0 0 0 .233-.227v-3.033l2.382 3.164a.233.233 0 0 0 .058.057c.001 0 .002 0 .003.002l.014.008.007.004a.229.229 0 0 0 .03.013c.005 0 .01.003.015.004l.003.001a.227.227 0 0 0 .06.007h.835a.23.23 0 0 0 .233-.227v-5.106a.23.23 0 0 0-.233-.228zm-7.767 4.283h-2.271v-4.055a.23.23 0 0 0-.232-.229h-.836a.23.23 0 0 0-.232.229v5.106c0 .061.025.116.065.158l.003.003a.234.234 0 0 0 .164.067h3.339a.23.23 0 0 0 .232-.228v-.823a.23.23 0 0 0-.232-.228zm12.383-3.005a.23.23 0 0 0 .232-.228v-.822a.23.23 0 0 0-.232-.228h-3.339a.232.232 0 0 0-.161.064l-.003.002-.003.004a.224.224 0 0 0-.065.158v5.106c0 .061.025.117.065.158l.003.003.003.003c.042.04.099.064.16.064h3.342a.23.23 0 0 0 .23-.228v-.823a.23.23 0 0 0-.23-.228h-2.272v-.863h2.271a.23.23 0 0 0 .232-.228v-.822a.23.23 0 0 0-.232-.229h-2.27v-.863h2.27z" fill="#FFF"/></g></svg>