<svg width="110" height="36" xmlns="http://www.w3.org/2000/svg">
<path d="M18.94 9.91h-4.18a.5.5 0 0 0-.47.43l-1.95 14.92c-.02.1.01.2.07.28.07.07.16.12.27.12h2.08c.35 0 .46-.2.5-.43l.34-2.67c.01-.05.05-.1.1-.1H18c.06 0 .1.05.1.1l.36 2.67c.03.23.12.43.48.43h2.1c.1 0 .19-.05.26-.12a.38.38 0 0 0 .07-.28l-1.95-14.92a.5.5 0 0 0-.48-.43zm-1.27 9.54a.09.09 0 0 1-.08.04h-1.46c-.04 0-.07-.01-.08-.04a.09.09 0 0 1-.03-.08l.73-5.6c.02-.1.2-.1.2 0l.74 5.6c0 .02 0 .06-.02.08zm15.47-9.54h-2.1a.42.42 0 0 0-.4.42v7.45c0 .05-.04.1-.09.11a.12.12 0 0 1-.13-.06l-2.94-7.5c-.08-.23-.22-.42-.6-.42h-2.1l-.08.01a.42.42 0 0 0-.32.41v14.9c0 .24.18.43.4.43h2.1c.22 0 .41-.2.41-.42v-7.46c0-.05.04-.1.08-.1h.02c.05 0 .09.02.1.07l2.94 7.48c.1.23.24.43.62.43h2.15c.2-.05.34-.22.34-.43v-14.9c0-.23-.2-.42-.41-.42zm21.07 0h-4.17c-.24 0-.45.2-.49.43L47.6 25.26c-.02.1.01.2.08.28.06.07.16.12.27.12h2.09c.33 0 .45-.2.47-.43l.35-2.67c.01-.05.06-.1.1-.1h2.3c.06 0 .1.05.12.1l.34 2.67c.03.23.13.43.48.43h2.1c.1 0 .19-.05.26-.12.07-.08.09-.17.08-.28l-1.95-14.92c-.06-.23-.28-.43-.51-.43h.03zm-1.27 9.54a.12.12 0 0 1-.1.04h-1.46a.11.11 0 0 1-.08-.04.1.1 0 0 1-.03-.08l.74-5.6c0-.1.2-.1.22 0l.73 5.6c0 .02-.01.06-.03.08zM68.4 9.91h-2.09a.42.42 0 0 0-.41.42v7.45c0 .05-.04.1-.08.11-.06.02-.11-.01-.12-.06l-2.94-7.5c-.1-.23-.24-.42-.62-.42h-2.09l-.07.01a.42.42 0 0 0-.34.41v14.9c0 .24.2.43.41.43h2.1c.22 0 .4-.2.4-.42v-7.46a.11.11 0 0 1 .1-.1c.06 0 .1.02.12.07l2.93 7.48c.1.23.23.43.61.43h2.17a.43.43 0 0 0 .33-.43v-14.9a.38.38 0 0 0-.39-.42h-.02zm6.8 0h-2.08a.41.41 0 0 0-.41.42v14.9c0 .24.18.43.4.43h2.1c.22 0 .4-.2.4-.42v-14.9c0-.24-.19-.43-.4-.43zm-30.6 0h-2.1a.4.4 0 0 0-.4.42v10.65a1.7 1.7 0 0 1-1.68 1.7c-.93 0-1.67-.76-1.67-1.7V19.9c0-.23-.2-.42-.43-.42h-2.07a.42.42 0 0 0-.43.42v1.07a4.65 4.65 0 0 0 4.6 4.68c2.53 0 4.59-2.1 4.59-4.68V10.33a.42.42 0 0 0-.41-.42zm-34.27.3c.05-.08.05-.16.02-.21-.02-.06-.1-.09-.2-.09H8.08a.7.7 0 0 0-.66.41l-2.9 5.32a.1.1 0 0 1-.12.06c-.05-.02-.07-.06-.07-.11v-5.26a.42.42 0 0 0-.42-.42H1.82a.41.41 0 0 0-.42.42v14.9c0 .24.18.43.42.43H3.9c.23 0 .42-.2.42-.42v-5.8c0-.06.02-.1.08-.12h.02c.05 0 .07.02.1.06l2.89 5.87c.11.22.3.41.66.41h2.1c.09 0 .17-.03.19-.08.03-.06.02-.14-.02-.23l-3.88-7.78a.11.11 0 0 1 0-.1l3.88-7.25zm96.78 2.05a6.83 6.83 0 0 0-5.44-2.35c-2.7 0-4.84 1.29-6.38 3.83l-.1.15-.1-.15c-1.63-2.54-3.83-3.83-6.52-3.83-2.02 0-3.75.81-5.14 2.4a8.14 8.14 0 0 0-2.02 5.5c0 2.18.63 4.03 1.87 5.48a6.78 6.78 0 0 0 5.42 2.37c2.69 0 4.84-1.3 6.4-3.83l.08-.15.1.14c1.64 2.55 3.83 3.84 6.51 3.84 2.02 0 3.77-.8 5.16-2.4a8.1 8.1 0 0 0 2.04-5.5c0-2.2-.63-4.06-1.88-5.5zm-13.45 5.8a11.05 11.05 0 0 1-1.92 3.07 3.92 3.92 0 0 1-2.84 1.13 3.82 3.82 0 0 1-3.1-1.42 4.7 4.7 0 0 1-1-3.02c0-1.16.37-2.2 1.1-3.08a3.6 3.6 0 0 1 2.86-1.44c1.16 0 2.15.42 2.96 1.23.67.67 1.33 1.75 1.95 3.2l.06.17-.06.15zm10.86 2.77a3.52 3.52 0 0 1-2.85 1.43c-2.04 0-3.71-1.49-4.96-4.43l-.08-.15.08-.16c.66-1.44 1.3-2.45 1.97-3.09a4.02 4.02 0 0 1 2.86-1.13c1.28 0 2.3.47 3.05 1.4.65.82.98 1.84.98 3.05a4.68 4.68 0 0 1-1.04 3.08h-.01z"/>
</svg>