<svg width="44" height="44" xmlns="http://www.w3.org/2000/svg"><g fill="none" fill-rule="evenodd"><path d="M0 0h44v44H0z"/><path d="M22.673 30.712c.058-.347.173-.635.23-.981.116-.577.232-1.212.347-1.789.058-.23.173-.404.404-.404.23-.057.404.058.461.231.289.462.52.981.75 1.443.058.057.058.115.116.115.115 0 .057-.115.057-.173.058-.404.174-.808.231-1.212.058-.346.346-.519.635-.404.23.058.346.231.288.462-.173.923-.404 1.846-.577 2.77-.057.23-.23.403-.403.403-.231.058-.404-.115-.52-.288-.23-.462-.519-.923-.75-1.385l-.115-.115.115.115c-.115.462-.173.865-.288 1.327-.058.173-.173.346-.404.346-.173.058-.346 0-.462-.173-.057-.058-.057-.173-.115-.288m8.365.058c.058-.347.116-.693.231-1.04l.346-1.73c.058-.23.173-.404.404-.404.231-.058.404.058.462.23.288.462.519.982.75 1.443l.057.116.058.057.058-.057c.058-.404.173-.866.23-1.27.058-.346.347-.519.635-.461.289.058.346.288.289.52-.173.807-.346 1.557-.52 2.364-.057.174-.057.404-.173.577-.23.289-.634.231-.865-.115a16.3 16.3 0 0 0-.75-1.385l.058-.23-.058.115c-.115.462-.173.865-.288 1.327-.058.173-.174.346-.404.346-.173.058-.346 0-.462-.173-.058-.058-.058-.115-.058-.23" fill="#FFF"/><path d="M38.308 33.365c-.289 0-.289 0-.346.289-.116.404-.174.865-.289 1.27-.115.403 0 .46.404.345l.115-.057c.52-.174.693-.635.808-1.154.058-.462-.173-.693-.692-.693zm-.75 2.77h-.635c-.23-.058-.404-.231-.346-.462.173-.923.404-1.846.577-2.711.058-.231.23-.347.404-.404.404 0 .865-.058 1.269.057.75.173 1.096.808 1.038 1.558-.057.52-.23.98-.577 1.385-.346.346-.692.577-1.211.634-.173-.057-.346-.057-.52-.057zm-6.52-.808c.116 0 .231 0 .347-.058.519-.23.865-1.038.692-1.615-.058-.116-.115-.23-.289-.289-.23-.057-.461-.057-.634.116-.404.23-.692.923-.635 1.384.058.347.173.462.52.462zm.577-2.827c1.039-.058 1.616.923 1.443 1.788-.116.635-.404 1.154-.923 1.5-.577.404-1.443.52-2.02.058a1.133 1.133 0 0 1-.519-.98c-.058-.981.404-1.731 1.27-2.193.23-.115.46-.173.75-.173zm3.231 1.5c.346 0 .577-.173.577-.404 0-.173-.115-.23-.288-.23-.289 0-.462.172-.462.519 0 .115.058.115.173.115zm.058-1.5c.23 0 .404 0 .634.058.693.173.924.807.635 1.442-.173.288-.404.52-.692.635-.173.057-.173.115-.058.23.115.173.289.347.404.52.173.23.115.461-.115.634a.412.412 0 0 1-.635-.057l-.52-.693-.115-.115-.057.115c-.058.173-.058.404-.173.577-.116.173-.347.23-.52.173-.288-.115-.346-.23-.288-.519.173-.75.288-1.5.461-2.25 0-.115.058-.288.116-.404.057-.288.288-.404.577-.461.057.115.173.115.346.115zM21.346 34c.346 0 .577-.173.577-.404 0-.173-.115-.23-.346-.23-.289 0-.346.115-.346.46-.058.174.057.174.115.174zm1.5-.52c0 .462-.404 1.04-.865 1.212-.173.058-.173.116-.058.231.115.173.23.346.404.52.173.23.115.519-.115.692-.231.173-.52.115-.635-.116-.173-.23-.346-.404-.462-.634-.057-.058-.057-.116-.115-.116s-.058.116-.058.173c-.057.173-.057.289-.115.462-.058.23-.346.404-.577.346-.288-.058-.404-.23-.346-.577.173-.865.404-1.788.577-2.654.057-.23.23-.404.461-.404.404 0 .866-.057 1.27.058.346.058.634.404.634.808z" fill="#FFF" fill-rule="nonzero"/><path d="M40.096 35.558c0-.404.404-.635.692-.462.289.173.52.23.808.058l.116-.173c.115-.116.057-.231-.116-.289-.173-.057-.404-.173-.577-.23-.692-.289-.634-.981-.288-1.443.461-.577 1.384-.75 1.904-.346.23.173.346.404.173.635-.173.288-.462.346-.693.173-.115-.116-.288-.116-.461-.058-.116 0-.173.058-.173.173 0 .116.057.116.173.173.23.116.461.173.692.289.52.288.52.807.289 1.269-.289.635-.808.865-1.443.865-.346 0-.75-.057-.98-.346-.058-.115-.116-.173-.116-.288m-15.923.577h-.577c-.404 0-.577-.173-.52-.577l.174-.866c.115-.461.23-.98.288-1.442 0-.115.058-.23.116-.404.058-.173.288-.346.52-.346h1.095c.289 0 .462.173.462.404 0 .23-.231.461-.462.52h-.634c-.058 0-.116 0-.173.057-.058.115-.058.23-.058.346l.173.058c.173 0 .346 0 .461.057.231.058.347.231.289.462 0 .173-.23.404-.404.404h-.577c-.173 0-.346.288-.23.404l.172.057h.52c.23.058.346.173.346.404 0 .23-.116.404-.346.462-.173.057-.404 0-.635 0m2.827-1.5v.23c.058.404.404.52.808.347.173-.058.346-.174.519-.231.23-.058.346 0 .461.173.116.173.058.346-.057.52-.173.23-.462.288-.693.345-.461.116-.865.116-1.269-.057-.404-.174-.577-.52-.692-.924-.173-.98.346-2.019 1.27-2.423.518-.23 1.095-.288 1.615.058.346.23.403.577.115.808-.115.115-.404.173-.52.057a.714.714 0 0 0-.807-.173c-.346.116-.52.404-.635.75-.057.231-.115.347-.115.52m1.442-6.173h-.115c-.289 0-.346.057-.346.346 0 .057.057.115.115.115h.346c.289 0 .462.173.52.404 0 .23-.231.52-.462.52h-.462c-.173 0-.23.057-.23.172-.058.231-.058.462-.116.693-.057.288-.288.461-.519.461-.288 0-.461-.23-.404-.52.173-.75.346-1.557.462-2.307 0-.115.057-.288.115-.404a.505.505 0 0 1 .52-.404h1.153c.289 0 .404.116.462.347.057.173-.116.403-.346.519-.347.115-.52.058-.693.058m12.231 2.711c-.288 0-.461-.23-.461-.52l.173-.865c.057-.23 0-.461-.116-.692-.115-.288-.288-.577-.404-.865-.115-.231-.057-.52.173-.635.231-.115.52-.058.635.23.115.174.173.405.289.636.057.115.115.115.173.057.173-.23.403-.461.577-.634.173-.231.403-.347.692-.231.23.115.288.346.173.52-.173.288-.346.46-.577.691a5.718 5.718 0 0 1-.577.635c-.173.23-.173.52-.23.75a2.074 2.074 0 0 0-.116.635c.058.115-.173.288-.404.288m-1.731-2.711c-.23-.058-.288.057-.288.23-.116.635-.23 1.27-.404 1.904-.058.173-.058.346-.23.462-.174.115-.405.173-.578.057-.173-.115-.23-.346-.173-.519.116-.634.289-1.27.404-1.961 0-.116 0-.173-.115-.173l-.231-.058c-.289-.058-.346-.23-.346-.462 0-.173.23-.404.461-.404h1.731c.173 0 .346.174.404.347.058.173-.058.403-.289.461-.115.116-.23.173-.346.116m-17.596 2.711c-.288 0-.461-.23-.404-.52.173-.865.346-1.73.577-2.595.058-.346.404-.577.693-.462.23.058.288.289.23.52-.115.46-.173.98-.288 1.442-.116.404-.173.865-.289 1.269-.115.23-.288.346-.519.346M36.404 28c-.058.23-.058.462-.116.692-.115.462-.23.981-.288 1.443-.058.173-.058.403-.115.577-.058.173-.173.346-.347.403-.23.116-.346.116-.519-.057-.115-.116-.173-.231-.115-.346.058-.347.115-.693.23-1.039.116-.461.231-.98.29-1.442 0-.116.057-.231.114-.404.058-.173.347-.346.577-.289.173.058.289.231.289.462m-7.096 2.77c0-.29.115-.635.173-.924.115-.634.288-1.211.404-1.846.057-.23.173-.346.403-.404.174-.058.347.058.462.173.115.116.058.231.058.346l-.346 1.558c-.058.346-.174.75-.231 1.096-.058.173-.173.346-.346.404a.449.449 0 0 1-.462-.115c-.115-.116-.115-.173-.115-.289" fill="#FFF"/><path d="M34.615 7.23c-.461 0-.865 0-1.269.058-3.115.347-6.173 1.904-7.846 3-1.73 1.097-9.692 7.154-9.692 7.154s-4.558-2.192-8.77-2.192h-.461c-4.385.173-6.52 2.942-6.462 5.596.058 2.77 2.481 4.327 5.77 4.327h.403c3.693-.115 7.558-2.77 8.943-3.923 0 0 9.692-7.385 10.384-7.904.635-.461 5.308-3.461 9.347-3.461.692 0 1.384.115 2.019.288 4.384 1.5 4.038 4.096 4.038 5.308 0 1.442-1.788 6.23-8.884 7.096-1.385.173-2.539.23-3.577.23-4.154 0-5.943-1.153-7.789-1.845a2.21 2.21 0 0 0-1.096-.289c-.635 0-1.327.289-1.615 1.096L15 35.385s-.288 1.211.923 1.384c.115 0 .23.058.346.058.923 0 1.27-.692 1.327-.808.058-.173 2.77-12.288 2.77-12.288s4.21 1.5 9.115 1.5c2.077 0 4.327-.289 6.404-1.039 6.923-2.596 8.827-7.154 7.269-11.711-1.27-4.039-5.423-5.25-8.539-5.25zM5.827 22.578c-1.615 0-2.827-.346-3.058-1.904-.23-1.73 2.25-2.596 2.943-2.711.23-.058.576-.058 1.153-.058 1.212 0 3.231.23 6.52 1.5 0 0-4.27 3.058-6.577 3.173h-.981z" fill="#FFF" fill-rule="nonzero"/></g></svg>